<?xml version="1.0" encoding="UTF-8"?>
<svg id="Capa_1" xmlns="http://www.w3.org/2000/svg" version="1.1" viewBox="0 0 3129 2000">
  <!-- Generator: Adobe Illustrator 30.1.0, SVG Export Plug-In . SVG Version: 2.1.1 Build 136)  -->
  <defs>
    <style>
      .st0 {
        fill: #d16f32;
      }

      .st1 {
        fill: #b4b63b;
      }

      .st2 {
        fill: #fff;
      }

      .st3 {
        fill: #6a6a6a;
      }
    </style>
  </defs>
  <path class="st3" d="M145.38,750.41c-38.1,80.34-59.43,170.27-59.43,265.24,0,340.4,274,616.35,612,616.35,163.51,0,312.05-64.57,421.81-169.8l-190.45-202.91c-60.98,62.29-146.01,100.94-240.06,100.94-185.51,0-335.9-150.38-335.9-335.9,0-32.12,4.51-63.19,12.94-92.61,0,0-149.91-6.31-217.3-171.54l-3.62-9.78Z"/>
  <path class="st1" d="M403.21,879.99c-127.77,2.25-219.48-101.5-217.66-219.91,1.73-112.23,86.36-209.11,214.34-211.1,127.89-1.99,216.71,96.57,218.39,212.63,1.77,122.29-94.82,218.57-215.08,218.37Z"/>
  <path class="st0" d="M689.27,1166.58c-86.46-.83-153.54-68.14-152.96-153.49.58-84.53,69.1-154.04,151.5-153.7,86.32.36,156.68,68.57,156.18,151.4-.54,89.76-66.94,156.62-154.71,155.78Z"/>
  <g>
    <path d="M1792.37,915.67v289.94c-14.82,0-27.88.23-40.93-.06-14.95-.33-10.95-12.01-10.97-20.17-.23-93.8-.15-187.61-.15-281.41,0-27.19,0-54.38,0-82.36,24.84-4.36,44.14-5.36,62.67,16.66,74.38,88.39,151,174.91,226.64,262.25,3.93,4.54,6.49,10.28,9.68,15.46,2.33-1.4,4.66-2.8,6.98-4.2v-291.43h52.74c0,8.61,0,16.1,0,23.6,0,110.6.2,221.21-.33,331.81-.05,9.89-4.29,28.06-7.43,28.24-16.38.97-34.66,8.28-48.91-8.59-31.17-36.91-63.19-73.11-94.9-109.57-47.34-54.41-94.73-108.78-142.03-163.23-2.68-3.09-4.67-6.79-6.98-10.21-2.03,1.09-4.06,2.17-6.09,3.26Z"/>
    <path d="M1411.44,903.04c-43.23-21.14-83.53-36.43-127.99-36.85-95.91-.9-162.33,64.53-158.45,156.32,3.64,86.09,80.2,148.28,172.58,135.46,39.38-5.46,77.37-20.99,117.95-32.5,0,12.19.49,29.18-.38,46.11-.19,3.76-4.39,9.07-8.04,10.63-82.95,35.43-167.15,46.22-247.98-2.3-73.97-44.4-104.87-128.62-85.49-215.37,16.91-75.69,86.14-137.15,166.94-148.82,55.19-7.97,107.33,4.02,158.05,23.98,5.73,2.26,11.31,11.41,12.22,18.02,1.88,13.65.57,27.74.57,45.31Z"/>
    <path d="M1526.04,867.29v118.93h156.34v48.94h-155.91v120.8h165.34v48.29h-220.88v-383.42h215.39c.76,2.24,1.88,4.1,1.98,6.02q2.06,40.45-38.82,40.45c-40.47,0-80.94,0-123.44,0Z"/>
    <path d="M2792.87,1035.74h-156.49v120.8h163.14c2.38,3.3,3.04,3.81,3.13,4.39,6.39,44.32,5.91,44.89-37.67,44.89-53.97,0-107.94.01-161.9-.08-6.86-.01-13.72-.65-21.92-1.07v-383.99h215c8.2,46.06,7.76,46.61-35.49,46.6-41.15,0-82.29,0-124.69,0v118.68c18.92,0,37.47,0,56.01,0,27.33,0,54.69.71,81.99-.28,14.68-.53,20.51,4.3,19.08,19.05-.93,9.55-.17,19.27-.17,31Z"/>
    <path d="M3032.3,899.64c-16.28-9.86-28.86-18.72-42.5-25.46-24.81-12.27-51.13-15.4-77.49-5.76-34.89,12.76-43.31,46.61-17.69,73.5,11.41,11.97,25.74,21.46,39.66,30.7,19.81,13.16,41.27,23.92,60.59,37.71,67.68,48.29,70.87,140.33,6.98,182.66-42.92,28.44-126.63,21.41-164.04-13.99-2.81-2.66-5.85-6.76-5.97-10.28-.59-18.53-.28-37.09-.28-59.38,13.65,11.82,23.59,21.27,34.38,29.61,23.82,18.41,51.05,25.71,80.95,22.22,42.89-5.01,63.02-47.69,36.97-81.95-11.51-15.14-28.19-26.85-43.91-38.21-23.79-17.17-49.82-31.32-73.03-49.19-35.62-27.43-45.15-65.47-32.95-107.23,11.72-40.1,42.42-61.31,82.52-68.94,33.42-6.36,65.36-.73,96.22,13.45,14.3,6.57,22.11,15.23,19.88,32.12-1.52,11.55-.29,23.47-.29,38.41Z"/>
    <path d="M2524,995.9c-6.44-84.46-63.75-155.48-147.49-168.2-67.23-10.21-136.3-8.35-204.72-11.85-2.04,9-2.89,11-2.9,13-.11,120.27.03,240.55-.42,360.82-.05,13.78,6.25,16.35,17.91,16.14,53.19-.92,106.43-.43,159.55-2.65,18.46-.77,37.46-5.8,54.85-12.44,81.31-31.04,129.8-108.63,123.22-194.83ZM2466.39,1026.04c-6.63,72.52-56.05,122.36-131.46,128.7-35.38,2.97-71.21.51-109.76.51v-290.56c47.11,3.04,94.03.38,138.17,10.19,72.4,16.08,109.9,76.24,103.05,151.16Z"/>
  </g>
  <path class="st3" d="M1139.29,598.23l-197.84,189.14s-67.4-108.7-276.11-108.7c0,0,21.74-167.4-141.32-245.67,0,0,336.98-113.05,615.26,165.23Z"/>
  <g>
    <path d="M1306.04,1284.68c4.56-.8,10.67-1.5,18.55-1.5,9.3,0,15.96,2.35,20.15,6.4,3.78,3.55,6.22,8.92,6.22,15.57s-1.91,12.25-5.6,16.12c-4.94,5.38-12.77,8.06-22.09,8.06-3.07,0-5.91-.14-8.22-.87v29.52h-9.02v-73.3ZM1315.07,1320.42c2.28.76,5.21,1.02,8.58,1.02,11.52,0,18.31-5.78,18.31-15.8,0-10.54-7.52-14.68-17.36-14.68-4.51,0-7.83.45-9.52.82v28.63Z"/>
    <path d="M1361.33,1322.3c0-6.88-.1-12.26-.4-17.51h7.96l.32,11.14h.33c2.48-7.83,8.2-12.46,14.53-12.46,1.04,0,1.8.08,2.71.33v9.25c-1.05-.25-2.05-.35-3.45-.35-6.62,0-11.22,5.2-12.54,12.81-.24,1.34-.38,2.91-.38,4.41v28.07h-9.08v-35.68Z"/>
    <path d="M1400.45,1333.47c.21,11.99,8.3,18.04,18.19,18.04,7.25,0,11.45-1.36,15.14-2.97l1.63,7.1c-3.19,1.51-8.96,3.66-17.89,3.66-15.9,0-25.77-11.04-25.77-26.9s9.25-28.94,24.82-28.94c17.68,0,21.85,16.49,21.85,25.54,0,2.01-.12,3.48-.35,4.46h-37.6ZM1429.6,1326.26c.07-4.57-1.84-15.75-13.74-15.75-10.24,0-14.48,9.21-15.3,15.75h29.03Z"/>
    <path d="M1453.54,1304.78l10.57,29.81c1.93,5.38,3.33,9.65,4.55,14h.26c1.29-4.42,2.87-8.82,4.7-14l10.6-29.81h9.68l-21.08,53.2h-8.88l-20.27-53.2h9.87Z"/>
    <path d="M1506.58,1333.47c.21,11.99,8.3,18.04,18.19,18.04,7.25,0,11.45-1.36,15.14-2.97l1.63,7.1c-3.19,1.51-8.96,3.66-17.89,3.66-15.9,0-25.77-11.04-25.77-26.9s9.25-28.94,24.82-28.94c17.68,0,21.85,16.49,21.85,25.54,0,2.01-.12,3.48-.35,4.46h-37.6ZM1535.73,1326.26c.07-4.57-1.84-15.75-13.74-15.75-10.24,0-14.48,9.21-15.3,15.75h29.03Z"/>
    <path d="M1556.35,1319.36c0-5.32-.13-10.12-.4-14.58h8.09l.52,9.53h.26c2.47-5.23,8.65-10.85,17.57-10.85,6.6,0,18.76,4.05,18.76,24.12v30.39h-9.08v-29.47c0-9.35-3.55-16.86-12.62-16.86-6.59,0-11.56,5.04-13.34,10.36-.4,1.14-.68,2.88-.68,4.4v31.57h-9.08v-38.62Z"/>
    <path d="M1654.62,1355.85c-2.51,1.3-8.26,3.45-15.78,3.45-15.88,0-26.18-11.43-26.18-27.25,0-16.77,11.17-28.59,28.17-28.59,6.03,0,11.3,1.67,13.98,3.21l-2.09,7.61c-2.52-1.5-6.26-2.92-11.83-2.92-12.09,0-18.99,8.75-18.96,20,0,12.29,8.13,19.91,18.61,19.91,5.86,0,9.72-1.67,12.45-2.92l1.63,7.5Z"/>
    <path d="M1676.35,1289.33c0,3.28-2.19,6.19-5.86,6.19-3.4,0-5.59-2.91-5.59-6.19s2.33-6.19,5.76-6.19,5.66,2.8,5.69,6.19ZM1666.07,1357.98v-53.2h9.08v53.2h-9.08Z"/>
    <path d="M1739.28,1330.72c0,19.4-13.62,28.58-26.61,28.58-14.55,0-25.66-11.12-25.66-27.4,0-17.27,11.51-28.44,26.51-28.44s25.76,11.83,25.76,27.26ZM1696.33,1331.54c0,12.62,7.6,20.35,16.7,20.35s16.93-7.41,16.93-20.74c0-9.28-5.03-20.28-16.65-20.28s-16.98,9.93-16.98,20.66ZM1726.67,1281.26l-12.75,16.06h-6.57l9.1-16.06h10.22Z"/>
    <path d="M1751.17,1319.36c0-5.32-.13-10.12-.4-14.58h8.09l.52,9.53h.26c2.47-5.23,8.65-10.85,17.57-10.85,6.6,0,18.76,4.05,18.76,24.12v30.39h-9.08v-29.47c0-9.35-3.55-16.86-12.62-16.86-6.59,0-11.56,5.04-13.34,10.36-.4,1.14-.68,2.88-.68,4.4v31.57h-9.08v-38.62Z"/>
    <path d="M1837.38,1304.78l11.91,31.74c1.22,3.31,2.63,7.71,3.47,10.81h.26c.98-3.17,2.12-7.26,3.42-11.12l10.81-31.43h9.87l-14.96,39.14c-7.33,19.93-11.94,28.05-18.02,33.04-4.66,3.93-9.15,5.3-11.44,5.59l-1.96-8.38c2.18-.57,5.18-1.81,7.96-4.08,2.49-1.88,5.88-5.68,8.33-11.38.46-.92.72-1.68.72-2.22,0-.51-.17-1.31-.73-2.65l-19.65-49.06h10.02Z"/>
    <path d="M1908.74,1283.84h39.71v8.18h-30.63v24.25h28.24v8.18h-28.24v33.52h-9.08v-74.14Z"/>
    <path d="M2006.65,1330.72c0,19.4-13.62,28.58-26.61,28.58-14.55,0-25.66-11.12-25.66-27.4,0-17.27,11.51-28.44,26.51-28.44s25.76,11.83,25.76,27.26ZM1963.69,1331.54c0,12.62,7.6,20.35,16.7,20.35s16.93-7.41,16.93-20.74c0-9.28-5.03-20.28-16.65-20.28s-16.98,9.93-16.98,20.66Z"/>
    <path d="M2018.54,1322.3c0-6.88-.1-12.26-.4-17.51h7.96l.32,11.14h.33c2.48-7.83,8.2-12.46,14.53-12.46,1.04,0,1.8.08,2.71.33v9.25c-1.05-.25-2.05-.35-3.45-.35-6.62,0-11.22,5.2-12.54,12.81-.24,1.34-.38,2.91-.38,4.41v28.07h-9.08v-35.68Z"/>
    <path d="M2067.1,1289.09v15.7h13.71v7.63h-13.71v27.68c0,6.52,1.55,10.91,7.16,10.91,2.62,0,4.49-.37,5.74-.83l.42,7.62c-1.81.8-4.85,1.5-8.54,1.5-4.36,0-7.93-1.65-10.1-4.39-2.57-3.1-3.58-8.17-3.58-14.05v-28.44h-7.99v-7.63h7.99v-13.19l8.9-2.51Z"/>
    <path d="M2121.05,1357.98l-.86-7.08h-.26c-2.82,4.17-8.63,8.4-16.44,8.4-10.83,0-15.82-8.17-15.82-15.28,0-12.75,10.57-20.23,31.76-20v-.95c0-3.36-.92-12.4-12.05-12.32-4.99,0-10.34,1.62-14.08,4.37l-2.1-6.6c4.65-3.25,10.95-5.06,17.45-5.06,16.42,0,19.84,12.5,19.84,22.72v18.84c0,4.72.23,9.23.8,12.96h-8.23ZM2119.61,1330.95c-11.34-.31-22.71,1.93-22.71,11.79,0,6.16,3.98,9.22,8.93,9.22,7.35,0,11.73-4.96,13.3-9.22.34-1.03.48-2.13.48-3.05v-8.74Z"/>
    <path d="M2143.8,1279.22h9.08v78.76h-9.08v-78.76Z"/>
    <path d="M2173.45,1333.47c.21,11.99,8.3,18.04,18.19,18.04,7.25,0,11.45-1.36,15.14-2.97l1.63,7.1c-3.19,1.51-8.96,3.66-17.89,3.66-15.9,0-25.77-11.04-25.77-26.9s9.25-28.94,24.82-28.94c17.68,0,21.85,16.49,21.85,25.54,0,2.01-.12,3.48-.35,4.46h-37.6ZM2202.6,1326.26c.07-4.57-1.84-15.75-13.74-15.75-10.24,0-14.48,9.21-15.3,15.75h29.03Z"/>
    <path d="M2261.2,1355.85c-2.51,1.3-8.26,3.45-15.78,3.45-15.88,0-26.18-11.43-26.18-27.25,0-16.77,11.17-28.59,28.17-28.59,6.03,0,11.3,1.67,13.98,3.21l-2.09,7.61c-2.52-1.5-6.26-2.92-11.83-2.92-12.09,0-18.99,8.75-18.96,20,0,12.29,8.13,19.91,18.61,19.91,5.86,0,9.72-1.67,12.45-2.92l1.63,7.5Z"/>
    <path d="M2282.93,1289.33c0,3.28-2.19,6.19-5.86,6.19-3.4,0-5.59-2.91-5.59-6.19s2.33-6.19,5.76-6.19,5.66,2.8,5.69,6.19ZM2272.65,1357.98v-53.2h9.08v53.2h-9.08Z"/>
    <path d="M2297.56,1319.36c0-5.32-.13-10.12-.4-14.58h7.91l.49,9.24h.26c2.89-5.31,7.66-10.56,16.67-10.56,7.21,0,12.59,5.07,14.75,11.51h.2c1.63-3.16,3.61-5.51,5.67-7.21,3.25-2.77,6.69-4.31,11.92-4.31,6.4,0,17.35,4.36,17.35,24.51v30.01h-8.87v-29.01c0-11.42-4.28-17.32-11.7-17.32-5.63,0-9.85,4.39-11.55,8.95-.47,1.4-.85,3.16-.85,4.87v32.5h-8.87v-30.93c0-9.35-4.21-15.39-11.15-15.39-6.23,0-10.54,5.42-12.18,9.99-.5,1.43-.78,3.17-.78,4.84v31.49h-8.87v-38.62Z"/>
    <path d="M2398.13,1289.33c0,3.28-2.19,6.19-5.86,6.19-3.4,0-5.59-2.91-5.59-6.19s2.33-6.19,5.76-6.19,5.66,2.8,5.69,6.19ZM2387.85,1357.98v-53.2h9.08v53.2h-9.08Z"/>
    <path d="M2417.5,1333.47c.21,11.99,8.3,18.04,18.19,18.04,7.25,0,11.45-1.36,15.14-2.97l1.63,7.1c-3.19,1.51-8.96,3.66-17.89,3.66-15.9,0-25.77-11.04-25.77-26.9s9.25-28.94,24.82-28.94c17.68,0,21.85,16.49,21.85,25.54,0,2.01-.12,3.48-.35,4.46h-37.6ZM2446.65,1326.26c.07-4.57-1.84-15.75-13.74-15.75-10.24,0-14.48,9.21-15.3,15.75h29.03Z"/>
    <path d="M2467.27,1319.36c0-5.32-.13-10.12-.4-14.58h8.09l.52,9.53h.26c2.47-5.23,8.65-10.85,17.57-10.85,6.6,0,18.76,4.05,18.76,24.12v30.39h-9.08v-29.47c0-9.35-3.55-16.86-12.62-16.86-6.59,0-11.56,5.04-13.34,10.36-.4,1.14-.68,2.88-.68,4.4v31.57h-9.08v-38.62Z"/>
    <path d="M2538.16,1289.09v15.7h13.71v7.63h-13.71v27.68c0,6.52,1.55,10.91,7.16,10.91,2.62,0,4.49-.37,5.74-.83l.42,7.62c-1.81.8-4.84,1.5-8.54,1.5-4.36,0-7.93-1.65-10.1-4.39-2.57-3.1-3.58-8.17-3.58-14.05v-28.44h-7.99v-7.63h7.99v-13.19l8.9-2.51Z"/>
    <path d="M2610.64,1330.72c0,19.4-13.62,28.58-26.61,28.58-14.55,0-25.66-11.12-25.66-27.4,0-17.27,11.51-28.44,26.51-28.44s25.76,11.83,25.76,27.26ZM2567.69,1331.54c0,12.62,7.6,20.35,16.7,20.35s16.93-7.41,16.93-20.74c0-9.28-5.03-20.28-16.65-20.28s-16.98,9.93-16.98,20.66Z"/>
    <path d="M2674.82,1357.98l-.86-7.08h-.26c-2.82,4.17-8.63,8.4-16.44,8.4-10.83,0-15.82-8.17-15.82-15.28,0-12.75,10.57-20.23,31.76-20v-.95c0-3.36-.92-12.4-12.05-12.32-4.99,0-10.34,1.62-14.08,4.37l-2.1-6.6c4.65-3.25,10.95-5.06,17.45-5.06,16.42,0,19.84,12.5,19.84,22.72v18.84c0,4.72.23,9.23.8,12.96h-8.23ZM2673.38,1330.95c-11.34-.31-22.71,1.93-22.71,11.79,0,6.16,3.98,9.22,8.93,9.22,7.35,0,11.73-4.96,13.3-9.22.34-1.03.48-2.13.48-3.05v-8.74Z"/>
    <path d="M2697.57,1319.36c0-5.32-.13-10.12-.4-14.58h8.09l.52,9.53h.26c2.47-5.23,8.65-10.85,17.57-10.85,6.6,0,18.76,4.05,18.76,24.12v30.39h-9.08v-29.47c0-9.35-3.55-16.86-12.62-16.86-6.59,0-11.56,5.04-13.34,10.36-.4,1.14-.68,2.88-.68,4.4v31.57h-9.08v-38.62Z"/>
    <path d="M2768.45,1289.09v15.7h13.71v7.63h-13.71v27.68c0,6.52,1.55,10.91,7.16,10.91,2.62,0,4.49-.37,5.74-.83l.42,7.62c-1.81.8-4.84,1.5-8.54,1.5-4.36,0-7.93-1.65-10.1-4.39-2.57-3.1-3.58-8.17-3.58-14.05v-28.44h-7.99v-7.63h7.99v-13.19l8.9-2.51Z"/>
    <path d="M2797.38,1333.47c.21,11.99,8.3,18.04,18.19,18.04,7.25,0,11.45-1.36,15.14-2.97l1.63,7.1c-3.19,1.51-8.96,3.66-17.89,3.66-15.9,0-25.77-11.04-25.77-26.9s9.25-28.94,24.82-28.94c17.68,0,21.85,16.49,21.85,25.54,0,2.01-.12,3.48-.35,4.46h-37.6ZM2826.53,1326.26c.07-4.57-1.84-15.75-13.74-15.75-10.24,0-14.48,9.21-15.3,15.75h29.03Z"/>
    <path d="M2870.17,1279.22h9.08v78.76h-9.08v-78.76Z"/>
    <path d="M2924.35,1357.98l-.86-7.08h-.26c-2.82,4.17-8.63,8.4-16.44,8.4-10.83,0-15.82-8.17-15.82-15.28,0-12.75,10.57-20.23,31.76-20v-.95c0-3.36-.92-12.4-12.05-12.32-4.99,0-10.34,1.62-14.08,4.37l-2.1-6.6c4.65-3.25,10.95-5.06,17.45-5.06,16.42,0,19.84,12.5,19.84,22.72v18.84c0,4.72.23,9.23.8,12.96h-8.23ZM2922.91,1330.95c-11.34-.31-22.71,1.93-22.71,11.79,0,6.16,3.98,9.22,8.94,9.22,7.35,0,11.73-4.96,13.3-9.22.34-1.03.48-2.13.48-3.05v-8.74Z"/>
    <path d="M1322.16,1489.98l-24.22-74.14h9.83l11.73,37.14c3.33,10.55,5.98,19.04,8.01,27.4h.2c2.17-8.24,5.23-17.24,8.71-27.16l13-37.38h9.66l-26.79,74.14h-10.12Z"/>
    <path d="M1375.01,1421.33c0,3.28-2.19,6.19-5.86,6.19-3.4,0-5.59-2.91-5.59-6.19s2.33-6.19,5.76-6.19,5.66,2.8,5.69,6.19ZM1364.72,1489.98v-53.2h9.08v53.2h-9.08Z"/>
    <path d="M1437.93,1462.72c0,19.4-13.62,28.58-26.61,28.58-14.55,0-25.66-11.12-25.66-27.4,0-17.27,11.51-28.44,26.51-28.44s25.76,11.83,25.76,27.26ZM1394.98,1463.54c0,12.62,7.6,20.35,16.7,20.35s16.93-7.41,16.93-20.74c0-9.28-5.03-20.28-16.65-20.28s-16.98,9.93-16.98,20.66Z"/>
    <path d="M1449.83,1411.22h9.08v78.76h-9.08v-78.76Z"/>
    <path d="M1479.47,1465.47c.21,11.99,8.3,18.04,18.19,18.04,7.25,0,11.45-1.36,15.14-2.97l1.63,7.1c-3.19,1.51-8.96,3.66-17.89,3.66-15.9,0-25.77-11.04-25.77-26.9s9.25-28.94,24.82-28.94c17.68,0,21.85,16.49,21.85,25.54,0,2.01-.12,3.48-.35,4.46h-37.6ZM1508.63,1458.26c.07-4.57-1.84-15.75-13.74-15.75-10.24,0-14.48,9.21-15.3,15.75h29.03Z"/>
    <path d="M1529.25,1451.36c0-5.32-.13-10.12-.4-14.58h8.09l.52,9.53h.26c2.47-5.23,8.65-10.85,17.57-10.85,6.6,0,18.76,4.05,18.76,24.12v30.39h-9.08v-29.47c0-9.35-3.55-16.86-12.62-16.86-6.59,0-11.56,5.04-13.34,10.36-.4,1.14-.68,2.88-.68,4.4v31.57h-9.08v-38.62Z"/>
    <path d="M1627.52,1487.85c-2.51,1.3-8.26,3.45-15.78,3.45-15.88,0-26.18-11.43-26.18-27.25,0-16.77,11.17-28.59,28.17-28.59,6.03,0,11.3,1.67,13.98,3.21l-2.09,7.61c-2.52-1.5-6.26-2.92-11.83-2.92-12.09,0-18.99,8.75-18.96,20,0,12.29,8.13,19.91,18.61,19.91,5.86,0,9.72-1.67,12.45-2.92l1.63,7.5Z"/>
    <path d="M1649.25,1421.33c0,3.28-2.19,6.19-5.86,6.19-3.4,0-5.59-2.91-5.59-6.19s2.33-6.19,5.76-6.19,5.66,2.8,5.69,6.19ZM1638.97,1489.98v-53.2h9.08v53.2h-9.08Z"/>
    <path d="M1693.15,1489.98l-.86-7.08h-.26c-2.82,4.17-8.63,8.4-16.44,8.4-10.83,0-15.82-8.17-15.82-15.28,0-12.75,10.57-20.23,31.76-20v-.95c0-3.36-.92-12.4-12.05-12.32-4.99,0-10.34,1.62-14.08,4.37l-2.1-6.6c4.65-3.25,10.95-5.06,17.45-5.06,16.42,0,19.84,12.5,19.84,22.72v18.84c0,4.72.23,9.23.8,12.96h-8.23ZM1691.71,1462.95c-11.34-.31-22.71,1.93-22.71,11.79,0,6.16,3.98,9.22,8.93,9.22,7.35,0,11.73-4.96,13.3-9.22.34-1.03.48-2.13.48-3.05v-8.74Z"/>
    <path d="M1738.06,1477.68c4.42,3.04,10.61,5.4,17.45,5.4,9.48,0,15.04-5.12,15.04-12.63,0-6.88-3.65-10.89-13.98-14.42-12.85-4.37-19.46-10.55-19.46-21.19,0-11.65,9.22-20.32,23.11-20.32,7.71,0,13.26,1.84,16.63,3.87l-2.61,8.05c-2.28-1.43-7.34-3.85-14.24-3.85-10.11,0-13.72,6.21-13.72,11.25,0,6.73,4.29,10.28,14.52,13.9,12.5,4.47,18.96,10.24,18.96,22,0,10.89-7.41,21.56-25.07,21.56-7.13,0-14.96-2.33-19.11-5.37l2.49-8.25Z"/>
    <path d="M1797.66,1465.47c.21,11.99,8.3,18.04,18.19,18.04,7.25,0,11.45-1.36,15.14-2.97l1.63,7.1c-3.19,1.51-8.96,3.66-17.89,3.66-15.9,0-25.77-11.04-25.77-26.9s9.25-28.94,24.82-28.94c17.68,0,21.85,16.49,21.85,25.54,0,2.01-.12,3.48-.35,4.46h-37.6ZM1826.81,1458.26c.07-4.57-1.84-15.75-13.74-15.75-10.24,0-14.48,9.21-15.3,15.75h29.03Z"/>
    <path d="M1851.19,1436.78l7.73,11.39c2.02,2.96,3.7,5.53,5.48,8.45h.23c1.78-3.05,3.54-5.7,5.43-8.58l7.49-11.26h10.1l-18.1,25.53,18.72,27.67h-10.45l-7.98-11.93c-2.13-3.19-3.95-6.26-5.82-9.32h-.23c-1.78,3.24-3.61,6-5.75,9.32l-7.75,11.93h-10.3l19.04-27.29-18.12-25.91h10.26Z"/>
    <path d="M1941.66,1475.4c0,5.48.13,10.29.4,14.58h-8.09l-.45-9.74h-.26c-2.47,4.84-8.04,11.06-17.83,11.06-7.25,0-18.22-3.81-18.22-24.27v-30.25h9.08v28.39c0,10.73,3.41,17.86,12.2,17.86,6.32,0,11.14-4.5,13.16-9.47.51-1.38.93-3.16.93-5.04v-31.75h9.08v38.62Z"/>
    <path d="M1986.82,1489.98l-.86-7.08h-.26c-2.82,4.17-8.63,8.4-16.44,8.4-10.83,0-15.82-8.17-15.82-15.28,0-12.75,10.57-20.23,31.76-20v-.95c0-3.36-.92-12.4-12.05-12.32-4.99,0-10.34,1.62-14.08,4.37l-2.1-6.6c4.65-3.25,10.95-5.06,17.45-5.06,16.42,0,19.84,12.5,19.84,22.72v18.84c0,4.72.23,9.23.8,12.96h-8.23ZM1985.38,1462.95c-11.34-.31-22.71,1.93-22.71,11.79,0,6.16,3.98,9.22,8.94,9.22,7.35,0,11.73-4.96,13.3-9.22.34-1.03.48-2.13.48-3.05v-8.74Z"/>
    <path d="M2009.57,1411.22h9.08v78.76h-9.08v-78.76Z"/>
    <path d="M2066.7,1415.84v74.14h-9.08v-74.14h9.08Z"/>
    <path d="M2084.11,1451.36c0-5.32-.13-10.12-.4-14.58h8.09l.52,9.53h.26c2.47-5.23,8.65-10.85,17.57-10.85,6.6,0,18.76,4.05,18.76,24.12v30.39h-9.08v-29.47c0-9.35-3.55-16.86-12.62-16.86-6.59,0-11.56,5.04-13.34,10.36-.4,1.14-.68,2.88-.68,4.4v31.57h-9.08v-38.62Z"/>
    <path d="M2145,1489.98v-45.57h-6.95v-7.63h6.95v-2.33c0-8.09,1.81-15.17,6.05-19.52,3.44-3.51,8.02-5.03,12.41-5.03,3.36,0,6.2.79,7.96,1.65l-1.12,7.69c-1.46-.71-3.31-1.32-6.11-1.32-8.03,0-10.18,7.51-10.18,16.16v2.71h12.58v7.63h-12.52v45.57h-9.08Z"/>
    <path d="M2204.96,1489.98l-.86-7.08h-.26c-2.82,4.17-8.63,8.4-16.44,8.4-10.83,0-15.82-8.17-15.82-15.28,0-12.75,10.57-20.23,31.76-20v-.95c0-3.36-.92-12.4-12.05-12.32-4.99,0-10.34,1.62-14.08,4.37l-2.1-6.6c4.65-3.25,10.95-5.06,17.45-5.06,16.42,0,19.84,12.5,19.84,22.72v18.84c0,4.72.23,9.23.8,12.96h-8.23ZM2203.52,1462.95c-11.34-.31-22.71,1.93-22.71,11.79,0,6.16,3.98,9.22,8.93,9.22,7.35,0,11.73-4.96,13.3-9.22.34-1.03.48-2.13.48-3.05v-8.74Z"/>
    <path d="M2227.71,1451.36c0-5.32-.13-10.12-.4-14.58h8.09l.52,9.53h.26c2.47-5.23,8.65-10.85,17.57-10.85,6.6,0,18.76,4.05,18.76,24.12v30.39h-9.08v-29.47c0-9.35-3.55-16.86-12.62-16.86-6.59,0-11.56,5.04-13.34,10.36-.4,1.14-.68,2.88-.68,4.4v31.57h-9.08v-38.62Z"/>
    <path d="M2298.59,1421.09v15.7h13.71v7.63h-13.71v27.68c0,6.52,1.55,10.91,7.16,10.91,2.62,0,4.49-.37,5.74-.83l.42,7.62c-1.81.8-4.84,1.5-8.54,1.5-4.36,0-7.93-1.65-10.1-4.39-2.57-3.1-3.58-8.17-3.58-14.05v-28.44h-7.99v-7.63h7.99v-13.19l8.9-2.51Z"/>
    <path d="M2333.56,1421.33c0,3.28-2.19,6.19-5.86,6.19-3.4,0-5.59-2.91-5.59-6.19s2.33-6.19,5.76-6.19,5.66,2.8,5.69,6.19ZM2323.27,1489.98v-53.2h9.08v53.2h-9.08Z"/>
    <path d="M2348.19,1411.22h9.08v78.76h-9.08v-78.76Z"/>
    <path d="M2399.01,1436.78l11.91,31.74c1.22,3.31,2.63,7.71,3.47,10.81h.26c.98-3.17,2.12-7.26,3.42-11.12l10.81-31.43h9.87l-14.96,39.14c-7.33,19.93-11.94,28.05-18.02,33.04-4.66,3.93-9.15,5.3-11.44,5.59l-1.96-8.38c2.18-.57,5.18-1.81,7.96-4.08,2.49-1.88,5.88-5.68,8.33-11.38.46-.92.72-1.68.72-2.22,0-.51-.17-1.31-.73-2.65l-19.65-49.06h10.02Z"/>
    <path d="M2482.25,1466.33l-7.77,23.65h-9.52l25.34-74.14h11.08l25.62,74.14h-9.85l-8.12-23.65h-26.78ZM2507.04,1458.61l-7.7-22.17c-1.61-4.72-2.66-8.57-3.72-12.4h-.2c-1.03,3.91-2.09,7.83-3.54,12.2l-7.65,22.36h22.8Z"/>
    <path d="M2581.61,1411.22v64.71c0,5.12.13,10.19.4,14.05h-8.2l-.42-10.04h-.2c-3.06,6.67-9.64,11.36-18.43,11.36-12.85,0-22.9-11.29-22.9-26.94-.1-17.42,10.84-28.9,24.03-28.9,8.68,0,14.21,4.51,16.45,8.66h.2v-32.91h9.08ZM2572.53,1458.91c0-1.31-.14-3.03-.45-4.34-1.67-6.29-6.98-11.39-14.54-11.39-9.98,0-16.49,8.45-16.49,20.5,0,10.66,5.62,19.63,16.39,19.63,7.03,0,13.04-5.37,14.61-12.47.34-1.36.48-2.76.48-4.36v-7.56Z"/>
    <path d="M2645.81,1462.72c0,19.4-13.62,28.58-26.61,28.58-14.55,0-25.66-11.12-25.66-27.4,0-17.27,11.51-28.44,26.51-28.44s25.76,11.83,25.76,27.26ZM2602.86,1463.54c0,12.62,7.6,20.35,16.7,20.35s16.93-7.41,16.93-20.74c0-9.28-5.03-20.28-16.65-20.28s-16.98,9.93-16.98,20.66Z"/>
    <path d="M2657.7,1411.22h9.08v78.76h-9.08v-78.76Z"/>
    <path d="M2687.35,1465.47c.21,11.99,8.3,18.04,18.19,18.04,7.25,0,11.45-1.36,15.14-2.97l1.63,7.1c-3.19,1.51-8.96,3.66-17.89,3.66-15.9,0-25.77-11.04-25.77-26.9s9.25-28.94,24.82-28.94c17.68,0,21.85,16.49,21.85,25.54,0,2.01-.12,3.48-.35,4.46h-37.6ZM2716.51,1458.26c.07-4.57-1.84-15.75-13.74-15.75-10.24,0-14.48,9.21-15.3,15.75h29.03Z"/>
    <path d="M2735.91,1479.79c2.95,2.01,8.1,4.13,12.89,4.13,7.08,0,10.11-3.65,10.11-7.98,0-4.87-2.95-7.18-9.88-9.52-9.51-3.15-13.85-8.59-13.82-15.06,0-8.54,6.46-15.89,17.78-15.89,5.28,0,9.97,1.5,12.88,3.45l-2.22,7.25c-1.86-1.24-5.89-3.38-11.04-3.38-5.53,0-8.57,3.27-8.57,7.47,0,4.68,3.37,6.63,10.2,9.04,9.22,3.23,13.5,7.78,13.53,15.9,0,9.01-6.65,16.11-19.19,16.11-5.86,0-11.06-1.61-14.88-3.92l2.21-7.6Z"/>
    <path d="M2818.16,1487.85c-2.51,1.3-8.26,3.45-15.78,3.45-15.88,0-26.18-11.43-26.18-27.25,0-16.77,11.17-28.59,28.17-28.59,6.03,0,11.3,1.67,13.98,3.21l-2.09,7.61c-2.52-1.5-6.26-2.92-11.83-2.92-12.09,0-18.99,8.75-18.96,20,0,12.29,8.13,19.91,18.61,19.91,5.86,0,9.72-1.67,12.45-2.92l1.63,7.5Z"/>
    <path d="M2833.84,1465.47c.21,11.99,8.3,18.04,18.19,18.04,7.25,0,11.45-1.36,15.14-2.97l1.63,7.1c-3.19,1.51-8.96,3.66-17.89,3.66-15.9,0-25.77-11.04-25.77-26.9s9.25-28.94,24.82-28.94c17.68,0,21.85,16.49,21.85,25.54,0,2.01-.12,3.48-.35,4.46h-37.6ZM2863,1458.26c.07-4.57-1.84-15.75-13.74-15.75-10.24,0-14.48,9.21-15.3,15.75h29.03Z"/>
    <path d="M2883.62,1451.36c0-5.32-.13-10.12-.4-14.58h8.09l.52,9.53h.26c2.47-5.23,8.65-10.85,17.57-10.85,6.6,0,18.76,4.05,18.76,24.12v30.39h-9.08v-29.47c0-9.35-3.55-16.86-12.62-16.86-6.59,0-11.56,5.04-13.34,10.36-.4,1.14-.68,2.88-.68,4.4v31.57h-9.08v-38.62Z"/>
    <path d="M2954.5,1421.09v15.7h13.71v7.63h-13.71v27.68c0,6.52,1.55,10.91,7.16,10.91,2.62,0,4.49-.37,5.74-.83l.42,7.62c-1.81.8-4.84,1.5-8.54,1.5-4.36,0-7.93-1.65-10.1-4.39-2.57-3.1-3.58-8.17-3.58-14.05v-28.44h-7.99v-7.63h7.99v-13.19l8.9-2.51Z"/>
    <path d="M2983.42,1465.47c.21,11.99,8.3,18.04,18.19,18.04,7.25,0,11.45-1.36,15.14-2.97l1.63,7.1c-3.19,1.51-8.96,3.66-17.89,3.66-15.9,0-25.77-11.04-25.77-26.9s9.25-28.94,24.82-28.94c17.68,0,21.85,16.49,21.85,25.54,0,2.01-.12,3.48-.35,4.46h-37.6ZM3012.58,1458.26c.07-4.57-1.84-15.75-13.74-15.75-10.24,0-14.48,9.21-15.3,15.75h29.03Z"/>
    <path d="M3029.27,1484.22c0-4.16,2.54-7.16,6.23-7.16s6.13,2.99,6.16,7.16c0,3.9-2.47,7.08-6.23,7.08s-6.23-3.18-6.16-7.08Z"/>
  </g>
  <path class="st2" d="M145.38-1216.59c-38.1,80.34-59.43,170.27-59.43,265.24,0,340.4,274,616.35,612,616.35,163.51,0,312.05-64.57,421.81-169.8l-190.45-202.91c-60.98,62.29-146.01,100.94-240.06,100.94-185.51,0-335.9-150.38-335.9-335.9,0-32.12,4.51-63.19,12.94-92.61,0,0-149.91-6.31-217.3-171.54l-3.62-9.78Z"/>
  <path class="st2" d="M403.21-1087.01c-127.77,2.25-219.48-101.5-217.66-219.91,1.73-112.23,86.36-209.11,214.34-211.1,127.89-1.99,216.71,96.57,218.39,212.63,1.77,122.29-94.82,218.57-215.08,218.37Z"/>
  <path class="st2" d="M689.27-800.42c-86.46-.83-153.54-68.14-152.96-153.49.58-84.53,69.1-154.04,151.5-153.7,86.32.36,156.68,68.57,156.18,151.4-.54,89.76-66.94,156.62-154.71,155.78Z"/>
  <g>
    <path class="st2" d="M1792.37-1051.33v289.94c-14.82,0-27.88.23-40.93-.06-14.95-.33-10.95-12.01-10.97-20.17-.23-93.8-.15-187.61-.15-281.41,0-27.19,0-54.38,0-82.36,24.84-4.36,44.14-5.36,62.67,16.66,74.38,88.39,151,174.91,226.64,262.25,3.93,4.54,6.49,10.28,9.68,15.46,2.33-1.4,4.66-2.8,6.98-4.2v-291.43h52.74c0,8.61,0,16.1,0,23.6,0,110.6.2,221.21-.33,331.81-.05,9.89-4.29,28.06-7.43,28.24-16.38.97-34.66,8.28-48.91-8.59-31.17-36.91-63.19-73.11-94.9-109.57-47.34-54.41-94.73-108.78-142.03-163.23-2.68-3.09-4.67-6.79-6.98-10.21-2.03,1.09-4.06,2.17-6.09,3.26Z"/>
    <path class="st2" d="M1411.44-1063.96c-43.23-21.14-83.53-36.43-127.99-36.85-95.91-.9-162.33,64.53-158.45,156.32,3.64,86.09,80.2,148.28,172.58,135.46,39.38-5.46,77.37-20.99,117.95-32.5,0,12.19.49,29.18-.38,46.11-.19,3.76-4.39,9.07-8.04,10.63-82.95,35.43-167.15,46.22-247.98-2.3-73.97-44.4-104.87-128.62-85.49-215.37,16.91-75.69,86.14-137.15,166.94-148.82,55.19-7.97,107.33,4.02,158.05,23.98,5.73,2.26,11.31,11.41,12.22,18.02,1.88,13.65.57,27.74.57,45.31Z"/>
    <path class="st2" d="M1526.04-1099.71v118.93h156.34v48.94h-155.91v120.8h165.34v48.29h-220.88v-383.42h215.39c.76,2.24,1.88,4.1,1.98,6.02q2.06,40.45-38.82,40.45c-40.47,0-80.94,0-123.44,0Z"/>
    <path class="st2" d="M2792.87-931.26h-156.49v120.8h163.14c2.38,3.3,3.04,3.81,3.13,4.39,6.39,44.32,5.91,44.89-37.67,44.89-53.97,0-107.94.01-161.9-.08-6.86-.01-13.72-.65-21.92-1.07v-383.99h215c8.2,46.06,7.76,46.61-35.49,46.6-41.15,0-82.29,0-124.69,0v118.68c18.92,0,37.47,0,56.01,0,27.33,0,54.69.71,81.99-.28,14.68-.53,20.51,4.3,19.08,19.05-.93,9.55-.17,19.27-.17,31Z"/>
    <path class="st2" d="M3032.3-1067.36c-16.28-9.86-28.86-18.72-42.5-25.46-24.81-12.27-51.13-15.4-77.49-5.76-34.89,12.76-43.31,46.61-17.69,73.5,11.41,11.97,25.74,21.46,39.66,30.7,19.81,13.16,41.27,23.92,60.59,37.71,67.68,48.29,70.87,140.33,6.98,182.66-42.92,28.44-126.63,21.41-164.04-13.99-2.81-2.66-5.85-6.76-5.97-10.28-.59-18.53-.28-37.09-.28-59.38,13.65,11.82,23.59,21.27,34.38,29.61,23.82,18.41,51.05,25.71,80.95,22.22,42.89-5.01,63.02-47.69,36.97-81.95-11.51-15.14-28.19-26.85-43.91-38.21-23.79-17.17-49.82-31.32-73.03-49.19-35.62-27.43-45.15-65.47-32.95-107.23,11.72-40.1,42.42-61.31,82.52-68.94,33.42-6.36,65.36-.73,96.22,13.45,14.3,6.57,22.11,15.23,19.88,32.12-1.52,11.55-.29,23.47-.29,38.41Z"/>
    <path class="st2" d="M2524-971.1c-6.44-84.46-63.75-155.48-147.49-168.2-67.23-10.21-136.3-8.35-204.72-11.85-2.04,9-2.89,11-2.9,13-.11,120.27.03,240.55-.42,360.82-.05,13.78,6.25,16.35,17.91,16.14,53.19-.92,106.43-.43,159.55-2.65,18.46-.77,37.46-5.8,54.85-12.44,81.31-31.04,129.8-108.63,123.22-194.83ZM2466.39-940.96c-6.63,72.52-56.05,122.36-131.46,128.7-35.38,2.97-71.21.51-109.76.51v-290.56c47.11,3.04,94.03.38,138.17,10.19,72.4,16.08,109.9,76.24,103.05,151.16Z"/>
  </g>
  <path class="st2" d="M1139.29-1368.77l-197.84,189.14s-67.4-108.7-276.11-108.7c0,0,21.74-167.4-141.32-245.67,0,0,336.98-113.05,615.26,165.23Z"/>
  <g>
    <path class="st2" d="M1306.04-682.32c4.56-.8,10.67-1.5,18.55-1.5,9.3,0,15.96,2.35,20.15,6.4,3.78,3.55,6.22,8.92,6.22,15.57s-1.91,12.25-5.6,16.12c-4.94,5.38-12.77,8.06-22.09,8.06-3.07,0-5.91-.14-8.22-.87v29.52h-9.02v-73.3ZM1315.07-646.58c2.28.76,5.21,1.02,8.58,1.02,11.52,0,18.31-5.78,18.31-15.8,0-10.54-7.52-14.68-17.36-14.68-4.51,0-7.83.45-9.52.82v28.63Z"/>
    <path class="st2" d="M1361.33-644.7c0-6.88-.1-12.26-.4-17.51h7.96l.32,11.14h.33c2.48-7.83,8.2-12.46,14.53-12.46,1.04,0,1.8.08,2.71.33v9.25c-1.05-.25-2.05-.35-3.45-.35-6.62,0-11.22,5.2-12.54,12.81-.24,1.34-.38,2.91-.38,4.41v28.07h-9.08v-35.68Z"/>
    <path class="st2" d="M1400.45-633.53c.21,11.99,8.3,18.04,18.19,18.04,7.25,0,11.45-1.36,15.14-2.97l1.63,7.1c-3.19,1.51-8.96,3.66-17.89,3.66-15.9,0-25.77-11.04-25.77-26.9s9.25-28.94,24.82-28.94c17.68,0,21.85,16.49,21.85,25.54,0,2.01-.12,3.48-.35,4.46h-37.6ZM1429.6-640.74c.07-4.57-1.84-15.75-13.74-15.75-10.24,0-14.48,9.21-15.3,15.75h29.03Z"/>
    <path class="st2" d="M1453.54-662.22l10.57,29.81c1.93,5.38,3.33,9.65,4.55,14h.26c1.29-4.42,2.87-8.82,4.7-14l10.6-29.81h9.68l-21.08,53.2h-8.88l-20.27-53.2h9.87Z"/>
    <path class="st2" d="M1506.58-633.53c.21,11.99,8.3,18.04,18.19,18.04,7.25,0,11.45-1.36,15.14-2.97l1.63,7.1c-3.19,1.51-8.96,3.66-17.89,3.66-15.9,0-25.77-11.04-25.77-26.9s9.25-28.94,24.82-28.94c17.68,0,21.85,16.49,21.85,25.54,0,2.01-.12,3.48-.35,4.46h-37.6ZM1535.73-640.74c.07-4.57-1.84-15.75-13.74-15.75-10.24,0-14.48,9.21-15.3,15.75h29.03Z"/>
    <path class="st2" d="M1556.35-647.64c0-5.32-.13-10.12-.4-14.58h8.09l.52,9.53h.26c2.47-5.23,8.65-10.85,17.57-10.85,6.6,0,18.76,4.05,18.76,24.12v30.39h-9.08v-29.47c0-9.35-3.55-16.86-12.62-16.86-6.59,0-11.56,5.04-13.34,10.36-.4,1.14-.68,2.88-.68,4.4v31.57h-9.08v-38.62Z"/>
    <path class="st2" d="M1654.62-611.15c-2.51,1.3-8.26,3.45-15.78,3.45-15.88,0-26.18-11.43-26.18-27.25,0-16.77,11.17-28.59,28.17-28.59,6.03,0,11.3,1.67,13.98,3.21l-2.09,7.61c-2.52-1.5-6.26-2.92-11.83-2.92-12.09,0-18.99,8.75-18.96,20,0,12.29,8.13,19.91,18.61,19.91,5.86,0,9.72-1.67,12.45-2.92l1.63,7.5Z"/>
    <path class="st2" d="M1676.35-677.67c0,3.28-2.19,6.19-5.86,6.19-3.4,0-5.59-2.91-5.59-6.19s2.33-6.19,5.76-6.19,5.66,2.8,5.69,6.19ZM1666.07-609.02v-53.2h9.08v53.2h-9.08Z"/>
    <path class="st2" d="M1739.28-636.28c0,19.4-13.62,28.58-26.61,28.58-14.55,0-25.66-11.12-25.66-27.4,0-17.27,11.51-28.44,26.51-28.44s25.76,11.83,25.76,27.26ZM1696.33-635.46c0,12.62,7.6,20.35,16.7,20.35s16.93-7.41,16.93-20.74c0-9.28-5.03-20.28-16.65-20.28s-16.98,9.93-16.98,20.66ZM1726.67-685.74l-12.75,16.06h-6.57l9.1-16.06h10.22Z"/>
    <path class="st2" d="M1751.17-647.64c0-5.32-.13-10.12-.4-14.58h8.09l.52,9.53h.26c2.47-5.23,8.65-10.85,17.57-10.85,6.6,0,18.76,4.05,18.76,24.12v30.39h-9.08v-29.47c0-9.35-3.55-16.86-12.62-16.86-6.59,0-11.56,5.04-13.34,10.36-.4,1.14-.68,2.88-.68,4.4v31.57h-9.08v-38.62Z"/>
    <path class="st2" d="M1837.38-662.22l11.91,31.74c1.22,3.31,2.63,7.71,3.47,10.81h.26c.98-3.17,2.12-7.26,3.42-11.12l10.81-31.43h9.87l-14.96,39.14c-7.33,19.93-11.94,28.05-18.02,33.04-4.66,3.93-9.15,5.3-11.44,5.59l-1.96-8.38c2.18-.57,5.18-1.81,7.96-4.08,2.49-1.88,5.88-5.68,8.33-11.38.46-.92.72-1.68.72-2.22,0-.51-.17-1.31-.73-2.65l-19.65-49.06h10.02Z"/>
    <path class="st2" d="M1908.74-683.16h39.71v8.18h-30.63v24.25h28.24v8.18h-28.24v33.52h-9.08v-74.14Z"/>
    <path class="st2" d="M2006.65-636.28c0,19.4-13.62,28.58-26.61,28.58-14.55,0-25.66-11.12-25.66-27.4,0-17.27,11.51-28.44,26.51-28.44s25.76,11.83,25.76,27.26ZM1963.69-635.46c0,12.62,7.6,20.35,16.7,20.35s16.93-7.41,16.93-20.74c0-9.28-5.03-20.28-16.65-20.28s-16.98,9.93-16.98,20.66Z"/>
    <path class="st2" d="M2018.54-644.7c0-6.88-.1-12.26-.4-17.51h7.96l.32,11.14h.33c2.48-7.83,8.2-12.46,14.53-12.46,1.04,0,1.8.08,2.71.33v9.25c-1.05-.25-2.05-.35-3.45-.35-6.62,0-11.22,5.2-12.54,12.81-.24,1.34-.38,2.91-.38,4.41v28.07h-9.08v-35.68Z"/>
    <path class="st2" d="M2067.1-677.91v15.7h13.71v7.63h-13.71v27.68c0,6.52,1.55,10.91,7.16,10.91,2.62,0,4.49-.37,5.74-.83l.42,7.62c-1.81.8-4.85,1.5-8.54,1.5-4.36,0-7.93-1.65-10.1-4.39-2.57-3.1-3.58-8.17-3.58-14.05v-28.44h-7.99v-7.63h7.99v-13.19l8.9-2.51Z"/>
    <path class="st2" d="M2121.05-609.02l-.86-7.08h-.26c-2.82,4.17-8.63,8.4-16.44,8.4-10.83,0-15.82-8.17-15.82-15.28,0-12.75,10.57-20.23,31.76-20v-.95c0-3.36-.92-12.4-12.05-12.32-4.99,0-10.34,1.62-14.08,4.37l-2.1-6.6c4.65-3.25,10.95-5.06,17.45-5.06,16.42,0,19.84,12.5,19.84,22.72v18.84c0,4.72.23,9.23.8,12.96h-8.23ZM2119.61-636.05c-11.34-.31-22.71,1.93-22.71,11.79,0,6.16,3.98,9.22,8.93,9.22,7.35,0,11.73-4.96,13.3-9.22.34-1.03.48-2.13.48-3.05v-8.74Z"/>
    <path class="st2" d="M2143.8-687.78h9.08v78.76h-9.08v-78.76Z"/>
    <path class="st2" d="M2173.45-633.53c.21,11.99,8.3,18.04,18.19,18.04,7.25,0,11.45-1.36,15.14-2.97l1.63,7.1c-3.19,1.51-8.96,3.66-17.89,3.66-15.9,0-25.77-11.04-25.77-26.9s9.25-28.94,24.82-28.94c17.68,0,21.85,16.49,21.85,25.54,0,2.01-.12,3.48-.35,4.46h-37.6ZM2202.6-640.74c.07-4.57-1.84-15.75-13.74-15.75-10.24,0-14.48,9.21-15.3,15.75h29.03Z"/>
    <path class="st2" d="M2261.2-611.15c-2.51,1.3-8.26,3.45-15.78,3.45-15.88,0-26.18-11.43-26.18-27.25,0-16.77,11.17-28.59,28.17-28.59,6.03,0,11.3,1.67,13.98,3.21l-2.09,7.61c-2.52-1.5-6.26-2.92-11.83-2.92-12.09,0-18.99,8.75-18.96,20,0,12.29,8.13,19.91,18.61,19.91,5.86,0,9.72-1.67,12.45-2.92l1.63,7.5Z"/>
    <path class="st2" d="M2282.93-677.67c0,3.28-2.19,6.19-5.86,6.19-3.4,0-5.59-2.91-5.59-6.19s2.33-6.19,5.76-6.19,5.66,2.8,5.69,6.19ZM2272.65-609.02v-53.2h9.08v53.2h-9.08Z"/>
    <path class="st2" d="M2297.56-647.64c0-5.32-.13-10.12-.4-14.58h7.91l.49,9.24h.26c2.89-5.31,7.66-10.56,16.67-10.56,7.21,0,12.59,5.07,14.75,11.51h.2c1.63-3.16,3.61-5.51,5.67-7.21,3.25-2.77,6.69-4.31,11.92-4.31,6.4,0,17.35,4.36,17.35,24.51v30.01h-8.87v-29.01c0-11.42-4.28-17.32-11.7-17.32-5.63,0-9.85,4.39-11.55,8.95-.47,1.4-.85,3.16-.85,4.87v32.5h-8.87v-30.93c0-9.35-4.21-15.39-11.15-15.39-6.23,0-10.54,5.42-12.18,9.99-.5,1.43-.78,3.17-.78,4.84v31.49h-8.87v-38.62Z"/>
    <path class="st2" d="M2398.13-677.67c0,3.28-2.19,6.19-5.86,6.19-3.4,0-5.59-2.91-5.59-6.19s2.33-6.19,5.76-6.19,5.66,2.8,5.69,6.19ZM2387.85-609.02v-53.2h9.08v53.2h-9.08Z"/>
    <path class="st2" d="M2417.5-633.53c.21,11.99,8.3,18.04,18.19,18.04,7.25,0,11.45-1.36,15.14-2.97l1.63,7.1c-3.19,1.51-8.96,3.66-17.89,3.66-15.9,0-25.77-11.04-25.77-26.9s9.25-28.94,24.82-28.94c17.68,0,21.85,16.49,21.85,25.54,0,2.01-.12,3.48-.35,4.46h-37.6ZM2446.65-640.74c.07-4.57-1.84-15.75-13.74-15.75-10.24,0-14.48,9.21-15.3,15.75h29.03Z"/>
    <path class="st2" d="M2467.27-647.64c0-5.32-.13-10.12-.4-14.58h8.09l.52,9.53h.26c2.47-5.23,8.65-10.85,17.57-10.85,6.6,0,18.76,4.05,18.76,24.12v30.39h-9.08v-29.47c0-9.35-3.55-16.86-12.62-16.86-6.59,0-11.56,5.04-13.34,10.36-.4,1.14-.68,2.88-.68,4.4v31.57h-9.08v-38.62Z"/>
    <path class="st2" d="M2538.16-677.91v15.7h13.71v7.63h-13.71v27.68c0,6.52,1.55,10.91,7.16,10.91,2.62,0,4.49-.37,5.74-.83l.42,7.62c-1.81.8-4.84,1.5-8.54,1.5-4.36,0-7.93-1.65-10.1-4.39-2.57-3.1-3.58-8.17-3.58-14.05v-28.44h-7.99v-7.63h7.99v-13.19l8.9-2.51Z"/>
    <path class="st2" d="M2610.64-636.28c0,19.4-13.62,28.58-26.61,28.58-14.55,0-25.66-11.12-25.66-27.4,0-17.27,11.51-28.44,26.51-28.44s25.76,11.83,25.76,27.26ZM2567.69-635.46c0,12.62,7.6,20.35,16.7,20.35s16.93-7.41,16.93-20.74c0-9.28-5.03-20.28-16.65-20.28s-16.98,9.93-16.98,20.66Z"/>
    <path class="st2" d="M2674.82-609.02l-.86-7.08h-.26c-2.82,4.17-8.63,8.4-16.44,8.4-10.83,0-15.82-8.17-15.82-15.28,0-12.75,10.57-20.23,31.76-20v-.95c0-3.36-.92-12.4-12.05-12.32-4.99,0-10.34,1.62-14.08,4.37l-2.1-6.6c4.65-3.25,10.95-5.06,17.45-5.06,16.42,0,19.84,12.5,19.84,22.72v18.84c0,4.72.23,9.23.8,12.96h-8.23ZM2673.38-636.05c-11.34-.31-22.71,1.93-22.71,11.79,0,6.16,3.98,9.22,8.93,9.22,7.35,0,11.73-4.96,13.3-9.22.34-1.03.48-2.13.48-3.05v-8.74Z"/>
    <path class="st2" d="M2697.57-647.64c0-5.32-.13-10.12-.4-14.58h8.09l.52,9.53h.26c2.47-5.23,8.65-10.85,17.57-10.85,6.6,0,18.76,4.05,18.76,24.12v30.39h-9.08v-29.47c0-9.35-3.55-16.86-12.62-16.86-6.59,0-11.56,5.04-13.34,10.36-.4,1.14-.68,2.88-.68,4.4v31.57h-9.08v-38.62Z"/>
    <path class="st2" d="M2768.45-677.91v15.7h13.71v7.63h-13.71v27.68c0,6.52,1.55,10.91,7.16,10.91,2.62,0,4.49-.37,5.74-.83l.42,7.62c-1.81.8-4.84,1.5-8.54,1.5-4.36,0-7.93-1.65-10.1-4.39-2.57-3.1-3.58-8.17-3.58-14.05v-28.44h-7.99v-7.63h7.99v-13.19l8.9-2.51Z"/>
    <path class="st2" d="M2797.38-633.53c.21,11.99,8.3,18.04,18.19,18.04,7.25,0,11.45-1.36,15.14-2.97l1.63,7.1c-3.19,1.51-8.96,3.66-17.89,3.66-15.9,0-25.77-11.04-25.77-26.9s9.25-28.94,24.82-28.94c17.68,0,21.85,16.49,21.85,25.54,0,2.01-.12,3.48-.35,4.46h-37.6ZM2826.53-640.74c.07-4.57-1.84-15.75-13.74-15.75-10.24,0-14.48,9.21-15.3,15.75h29.03Z"/>
    <path class="st2" d="M2870.17-687.78h9.08v78.76h-9.08v-78.76Z"/>
    <path class="st2" d="M2924.35-609.02l-.86-7.08h-.26c-2.82,4.17-8.63,8.4-16.44,8.4-10.83,0-15.82-8.17-15.82-15.28,0-12.75,10.57-20.23,31.76-20v-.95c0-3.36-.92-12.4-12.05-12.32-4.99,0-10.34,1.62-14.08,4.37l-2.1-6.6c4.65-3.25,10.95-5.06,17.45-5.06,16.42,0,19.84,12.5,19.84,22.72v18.84c0,4.72.23,9.23.8,12.96h-8.23ZM2922.91-636.05c-11.34-.31-22.71,1.93-22.71,11.79,0,6.16,3.98,9.22,8.94,9.22,7.35,0,11.73-4.96,13.3-9.22.34-1.03.48-2.13.48-3.05v-8.74Z"/>
    <path class="st2" d="M1322.16-477.02l-24.22-74.14h9.83l11.73,37.14c3.33,10.55,5.98,19.04,8.01,27.4h.2c2.17-8.24,5.23-17.24,8.71-27.16l13-37.38h9.66l-26.79,74.14h-10.12Z"/>
    <path class="st2" d="M1375.01-545.67c0,3.28-2.19,6.19-5.86,6.19-3.4,0-5.59-2.91-5.59-6.19s2.33-6.19,5.76-6.19,5.66,2.8,5.69,6.19ZM1364.72-477.02v-53.2h9.08v53.2h-9.08Z"/>
    <path class="st2" d="M1437.93-504.28c0,19.4-13.62,28.58-26.61,28.58-14.55,0-25.66-11.12-25.66-27.4,0-17.27,11.51-28.44,26.51-28.44s25.76,11.83,25.76,27.26ZM1394.98-503.46c0,12.62,7.6,20.35,16.7,20.35s16.93-7.41,16.93-20.74c0-9.28-5.03-20.28-16.65-20.28s-16.98,9.93-16.98,20.66Z"/>
    <path class="st2" d="M1449.83-555.78h9.08v78.76h-9.08v-78.76Z"/>
    <path class="st2" d="M1479.47-501.53c.21,11.99,8.3,18.04,18.19,18.04,7.25,0,11.45-1.36,15.14-2.97l1.63,7.1c-3.19,1.51-8.96,3.66-17.89,3.66-15.9,0-25.77-11.04-25.77-26.9s9.25-28.94,24.82-28.94c17.68,0,21.85,16.49,21.85,25.54,0,2.01-.12,3.48-.35,4.46h-37.6ZM1508.63-508.74c.07-4.57-1.84-15.75-13.74-15.75-10.24,0-14.48,9.21-15.3,15.75h29.03Z"/>
    <path class="st2" d="M1529.25-515.64c0-5.32-.13-10.12-.4-14.58h8.09l.52,9.53h.26c2.47-5.23,8.65-10.85,17.57-10.85,6.6,0,18.76,4.05,18.76,24.12v30.39h-9.08v-29.47c0-9.35-3.55-16.86-12.62-16.86-6.59,0-11.56,5.04-13.34,10.36-.4,1.14-.68,2.88-.68,4.4v31.57h-9.08v-38.62Z"/>
    <path class="st2" d="M1627.52-479.15c-2.51,1.3-8.26,3.45-15.78,3.45-15.88,0-26.18-11.43-26.18-27.25,0-16.77,11.17-28.59,28.17-28.59,6.03,0,11.3,1.67,13.98,3.21l-2.09,7.61c-2.52-1.5-6.26-2.92-11.83-2.92-12.09,0-18.99,8.75-18.96,20,0,12.29,8.13,19.91,18.61,19.91,5.86,0,9.72-1.67,12.45-2.92l1.63,7.5Z"/>
    <path class="st2" d="M1649.25-545.67c0,3.28-2.19,6.19-5.86,6.19-3.4,0-5.59-2.91-5.59-6.19s2.33-6.19,5.76-6.19,5.66,2.8,5.69,6.19ZM1638.97-477.02v-53.2h9.08v53.2h-9.08Z"/>
    <path class="st2" d="M1693.15-477.02l-.86-7.08h-.26c-2.82,4.17-8.63,8.4-16.44,8.4-10.83,0-15.82-8.17-15.82-15.28,0-12.75,10.57-20.23,31.76-20v-.95c0-3.36-.92-12.4-12.05-12.32-4.99,0-10.34,1.62-14.08,4.37l-2.1-6.6c4.65-3.25,10.95-5.06,17.45-5.06,16.42,0,19.84,12.5,19.84,22.72v18.84c0,4.72.23,9.23.8,12.96h-8.23ZM1691.71-504.05c-11.34-.31-22.71,1.93-22.71,11.79,0,6.16,3.98,9.22,8.93,9.22,7.35,0,11.73-4.96,13.3-9.22.34-1.03.48-2.13.48-3.05v-8.74Z"/>
    <path class="st2" d="M1738.06-489.32c4.42,3.04,10.61,5.4,17.45,5.4,9.48,0,15.04-5.12,15.04-12.63,0-6.88-3.65-10.89-13.98-14.42-12.85-4.37-19.46-10.55-19.46-21.19,0-11.65,9.22-20.32,23.11-20.32,7.71,0,13.26,1.84,16.63,3.87l-2.61,8.05c-2.28-1.43-7.34-3.85-14.24-3.85-10.11,0-13.72,6.21-13.72,11.25,0,6.73,4.29,10.28,14.52,13.9,12.5,4.47,18.96,10.24,18.96,22,0,10.89-7.41,21.56-25.07,21.56-7.13,0-14.96-2.33-19.11-5.37l2.49-8.25Z"/>
    <path class="st2" d="M1797.66-501.53c.21,11.99,8.3,18.04,18.19,18.04,7.25,0,11.45-1.36,15.14-2.97l1.63,7.1c-3.19,1.51-8.96,3.66-17.89,3.66-15.9,0-25.77-11.04-25.77-26.9s9.25-28.94,24.82-28.94c17.68,0,21.85,16.49,21.85,25.54,0,2.01-.12,3.48-.35,4.46h-37.6ZM1826.81-508.74c.07-4.57-1.84-15.75-13.74-15.75-10.24,0-14.48,9.21-15.3,15.75h29.03Z"/>
    <path class="st2" d="M1851.19-530.22l7.73,11.39c2.02,2.96,3.7,5.53,5.48,8.45h.23c1.78-3.05,3.54-5.7,5.43-8.58l7.49-11.26h10.1l-18.1,25.53,18.72,27.67h-10.45l-7.98-11.93c-2.13-3.19-3.95-6.26-5.82-9.32h-.23c-1.78,3.24-3.61,6-5.75,9.32l-7.75,11.93h-10.3l19.04-27.29-18.12-25.91h10.26Z"/>
    <path class="st2" d="M1941.66-491.6c0,5.48.13,10.29.4,14.58h-8.09l-.45-9.74h-.26c-2.47,4.84-8.04,11.06-17.83,11.06-7.25,0-18.22-3.81-18.22-24.27v-30.25h9.08v28.39c0,10.73,3.41,17.86,12.2,17.86,6.32,0,11.14-4.5,13.16-9.47.51-1.38.93-3.16.93-5.04v-31.75h9.08v38.62Z"/>
    <path class="st2" d="M1986.82-477.02l-.86-7.08h-.26c-2.82,4.17-8.63,8.4-16.44,8.4-10.83,0-15.82-8.17-15.82-15.28,0-12.75,10.57-20.23,31.76-20v-.95c0-3.36-.92-12.4-12.05-12.32-4.99,0-10.34,1.62-14.08,4.37l-2.1-6.6c4.65-3.25,10.95-5.06,17.45-5.06,16.42,0,19.84,12.5,19.84,22.72v18.84c0,4.72.23,9.23.8,12.96h-8.23ZM1985.38-504.05c-11.34-.31-22.71,1.93-22.71,11.79,0,6.16,3.98,9.22,8.94,9.22,7.35,0,11.73-4.96,13.3-9.22.34-1.03.48-2.13.48-3.05v-8.74Z"/>
    <path class="st2" d="M2009.57-555.78h9.08v78.76h-9.08v-78.76Z"/>
    <path class="st2" d="M2066.7-551.16v74.14h-9.08v-74.14h9.08Z"/>
    <path class="st2" d="M2084.11-515.64c0-5.32-.13-10.12-.4-14.58h8.09l.52,9.53h.26c2.47-5.23,8.65-10.85,17.57-10.85,6.6,0,18.76,4.05,18.76,24.12v30.39h-9.08v-29.47c0-9.35-3.55-16.86-12.62-16.86-6.59,0-11.56,5.04-13.34,10.36-.4,1.14-.68,2.88-.68,4.4v31.57h-9.08v-38.62Z"/>
    <path class="st2" d="M2145-477.02v-45.57h-6.95v-7.63h6.95v-2.33c0-8.09,1.81-15.17,6.05-19.52,3.44-3.51,8.02-5.03,12.41-5.03,3.36,0,6.2.79,7.96,1.65l-1.12,7.69c-1.46-.71-3.31-1.32-6.11-1.32-8.03,0-10.18,7.51-10.18,16.16v2.71h12.58v7.63h-12.52v45.57h-9.08Z"/>
    <path class="st2" d="M2204.96-477.02l-.86-7.08h-.26c-2.82,4.17-8.63,8.4-16.44,8.4-10.83,0-15.82-8.17-15.82-15.28,0-12.75,10.57-20.23,31.76-20v-.95c0-3.36-.92-12.4-12.05-12.32-4.99,0-10.34,1.62-14.08,4.37l-2.1-6.6c4.65-3.25,10.95-5.06,17.45-5.06,16.42,0,19.84,12.5,19.84,22.72v18.84c0,4.72.23,9.23.8,12.96h-8.23ZM2203.52-504.05c-11.34-.31-22.71,1.93-22.71,11.79,0,6.16,3.98,9.22,8.93,9.22,7.35,0,11.73-4.96,13.3-9.22.34-1.03.48-2.13.48-3.05v-8.74Z"/>
    <path class="st2" d="M2227.71-515.64c0-5.32-.13-10.12-.4-14.58h8.09l.52,9.53h.26c2.47-5.23,8.65-10.85,17.57-10.85,6.6,0,18.76,4.05,18.76,24.12v30.39h-9.08v-29.47c0-9.35-3.55-16.86-12.62-16.86-6.59,0-11.56,5.04-13.34,10.36-.4,1.14-.68,2.88-.68,4.4v31.57h-9.08v-38.62Z"/>
    <path class="st2" d="M2298.59-545.91v15.7h13.71v7.63h-13.71v27.68c0,6.52,1.55,10.91,7.16,10.91,2.62,0,4.49-.37,5.74-.83l.42,7.62c-1.81.8-4.84,1.5-8.54,1.5-4.36,0-7.93-1.65-10.1-4.39-2.57-3.1-3.58-8.17-3.58-14.05v-28.44h-7.99v-7.63h7.99v-13.19l8.9-2.51Z"/>
    <path class="st2" d="M2333.56-545.67c0,3.28-2.19,6.19-5.86,6.19-3.4,0-5.59-2.91-5.59-6.19s2.33-6.19,5.76-6.19,5.66,2.8,5.69,6.19ZM2323.27-477.02v-53.2h9.08v53.2h-9.08Z"/>
    <path class="st2" d="M2348.19-555.78h9.08v78.76h-9.08v-78.76Z"/>
    <path class="st2" d="M2399.01-530.22l11.91,31.74c1.22,3.31,2.63,7.71,3.47,10.81h.26c.98-3.17,2.12-7.26,3.42-11.12l10.81-31.43h9.87l-14.96,39.14c-7.33,19.93-11.94,28.05-18.02,33.04-4.66,3.93-9.15,5.3-11.44,5.59l-1.96-8.38c2.18-.57,5.18-1.81,7.96-4.08,2.49-1.88,5.88-5.68,8.33-11.38.46-.92.72-1.68.72-2.22,0-.51-.17-1.31-.73-2.65l-19.65-49.06h10.02Z"/>
    <path class="st2" d="M2482.25-500.67l-7.77,23.65h-9.52l25.34-74.14h11.08l25.62,74.14h-9.85l-8.12-23.65h-26.78ZM2507.04-508.39l-7.7-22.17c-1.61-4.72-2.66-8.57-3.72-12.4h-.2c-1.03,3.91-2.09,7.83-3.54,12.2l-7.65,22.36h22.8Z"/>
    <path class="st2" d="M2581.61-555.78v64.71c0,5.12.13,10.19.4,14.05h-8.2l-.42-10.04h-.2c-3.06,6.67-9.64,11.36-18.43,11.36-12.85,0-22.9-11.29-22.9-26.94-.1-17.42,10.84-28.9,24.03-28.9,8.68,0,14.21,4.51,16.45,8.66h.2v-32.91h9.08ZM2572.53-508.09c0-1.31-.14-3.03-.45-4.34-1.67-6.29-6.98-11.39-14.54-11.39-9.98,0-16.49,8.45-16.49,20.5,0,10.66,5.62,19.63,16.39,19.63,7.03,0,13.04-5.37,14.61-12.47.34-1.36.48-2.76.48-4.36v-7.56Z"/>
    <path class="st2" d="M2645.81-504.28c0,19.4-13.62,28.58-26.61,28.58-14.55,0-25.66-11.12-25.66-27.4,0-17.27,11.51-28.44,26.51-28.44s25.76,11.83,25.76,27.26ZM2602.86-503.46c0,12.62,7.6,20.35,16.7,20.35s16.93-7.41,16.93-20.74c0-9.28-5.03-20.28-16.65-20.28s-16.98,9.93-16.98,20.66Z"/>
    <path class="st2" d="M2657.7-555.78h9.08v78.76h-9.08v-78.76Z"/>
    <path class="st2" d="M2687.35-501.53c.21,11.99,8.3,18.04,18.19,18.04,7.25,0,11.45-1.36,15.14-2.97l1.63,7.1c-3.19,1.51-8.96,3.66-17.89,3.66-15.9,0-25.77-11.04-25.77-26.9s9.25-28.94,24.82-28.94c17.68,0,21.85,16.49,21.85,25.54,0,2.01-.12,3.48-.35,4.46h-37.6ZM2716.51-508.74c.07-4.57-1.84-15.75-13.74-15.75-10.24,0-14.48,9.21-15.3,15.75h29.03Z"/>
    <path class="st2" d="M2735.91-487.21c2.95,2.01,8.1,4.13,12.89,4.13,7.08,0,10.11-3.65,10.11-7.98,0-4.87-2.95-7.18-9.88-9.52-9.51-3.15-13.85-8.59-13.82-15.06,0-8.54,6.46-15.89,17.78-15.89,5.28,0,9.97,1.5,12.88,3.45l-2.22,7.25c-1.86-1.24-5.89-3.38-11.04-3.38-5.53,0-8.57,3.27-8.57,7.47,0,4.68,3.37,6.63,10.2,9.04,9.22,3.23,13.5,7.78,13.53,15.9,0,9.01-6.65,16.11-19.19,16.11-5.86,0-11.06-1.61-14.88-3.92l2.21-7.6Z"/>
    <path class="st2" d="M2818.16-479.15c-2.51,1.3-8.26,3.45-15.78,3.45-15.88,0-26.18-11.43-26.18-27.25,0-16.77,11.17-28.59,28.17-28.59,6.03,0,11.3,1.67,13.98,3.21l-2.09,7.61c-2.52-1.5-6.26-2.92-11.83-2.92-12.09,0-18.99,8.75-18.96,20,0,12.29,8.13,19.91,18.61,19.91,5.86,0,9.72-1.67,12.45-2.92l1.63,7.5Z"/>
    <path class="st2" d="M2833.84-501.53c.21,11.99,8.3,18.04,18.19,18.04,7.25,0,11.45-1.36,15.14-2.97l1.63,7.1c-3.19,1.51-8.96,3.66-17.89,3.66-15.9,0-25.77-11.04-25.77-26.9s9.25-28.94,24.82-28.94c17.68,0,21.85,16.49,21.85,25.54,0,2.01-.12,3.48-.35,4.46h-37.6ZM2863-508.74c.07-4.57-1.84-15.75-13.74-15.75-10.24,0-14.48,9.21-15.3,15.75h29.03Z"/>
    <path class="st2" d="M2883.62-515.64c0-5.32-.13-10.12-.4-14.58h8.09l.52,9.53h.26c2.47-5.23,8.65-10.85,17.57-10.85,6.6,0,18.76,4.05,18.76,24.12v30.39h-9.08v-29.47c0-9.35-3.55-16.86-12.62-16.86-6.59,0-11.56,5.04-13.34,10.36-.4,1.14-.68,2.88-.68,4.4v31.57h-9.08v-38.62Z"/>
    <path class="st2" d="M2954.5-545.91v15.7h13.71v7.63h-13.71v27.68c0,6.52,1.55,10.91,7.16,10.91,2.62,0,4.49-.37,5.74-.83l.42,7.62c-1.81.8-4.84,1.5-8.54,1.5-4.36,0-7.93-1.65-10.1-4.39-2.57-3.1-3.58-8.17-3.58-14.05v-28.44h-7.99v-7.63h7.99v-13.19l8.9-2.51Z"/>
    <path class="st2" d="M2983.42-501.53c.21,11.99,8.3,18.04,18.19,18.04,7.25,0,11.45-1.36,15.14-2.97l1.63,7.1c-3.19,1.51-8.96,3.66-17.89,3.66-15.9,0-25.77-11.04-25.77-26.9s9.25-28.94,24.82-28.94c17.68,0,21.85,16.49,21.85,25.54,0,2.01-.12,3.48-.35,4.46h-37.6ZM3012.58-508.74c.07-4.57-1.84-15.75-13.74-15.75-10.24,0-14.48,9.21-15.3,15.75h29.03Z"/>
    <path class="st2" d="M3029.27-482.78c0-4.16,2.54-7.16,6.23-7.16s6.13,2.99,6.16,7.16c0,3.9-2.47,7.08-6.23,7.08s-6.23-3.18-6.16-7.08Z"/>
  </g>
</svg>